<svg xmlns="http://www.w3.org/2000/svg" viewBox="0 0 32 32" width="32" height="32">
  <defs>
    <linearGradient id="grad" x1="0%" y1="0%" x2="100%" y2="100%">
      <stop offset="0%" style="stop-color:#667eea;stop-opacity:1" />
      <stop offset="100%" style="stop-color:#764ba2;stop-opacity:1" />
    </linearGradient>
  </defs>
  
  <!-- Background circle -->
  <circle cx="16" cy="16" r="15" fill="url(#grad)" stroke="#fff" stroke-width="1"/>
  
  <!-- GitHub-style folder icon -->
  <path d="M8 10h4l2 2h8c1.1 0 2 .9 2 2v8c0 1.1-.9 2-2 2H10c-1.1 0-2-.9-2-2V10z" fill="#fff" opacity="0.9"/>
  
  <!-- Stars -->
  <polygon points="16,6 17.2,9.2 20.8,9.2 18,11.6 19.2,14.8 16,12.4 12.8,14.8 14,11.6 11.2,9.2 14.8,9.2" fill="#ffd700" stroke="#fff" stroke-width="0.5"/>
  <polygon points="24,8 24.6,9.4 26.2,9.4 25,10.3 25.6,11.7 24,10.8 22.4,11.7 23,10.3 21.8,9.4 23.4,9.4" fill="#ffd700" opacity="0.8"/>
  <polygon points="8,8 8.6,9.4 10.2,9.4 9,10.3 9.6,11.7 8,10.8 6.4,11.7 7,10.3 5.8,9.4 7.4,9.4" fill="#ffd700" opacity="0.8"/>
</svg>